<?xml version="1.0" encoding="UTF-8"?>
<svg version="1.1" viewBox="0 0 360 374.72" xmlns="http://www.w3.org/2000/svg">
<rect x="126.23" y="243.97" width="22.08" height="129.61" fill="#90824a"/>
<rect x="177.74" y="243.97" width="22.08" height="129.61" fill="#90824a"/>
<g stroke-width=".32">
<path d="m131.83 266.64c-39.148 0.70011-74.272-22.714-99.649-50.726-31.234-43.271-35.635-80.342-25.021-125.1 15.711 26.193 49.008 34.917 68.35 25.806 25.426-13.544 40.613-39.383 59.182-60.407 19.344-22.901 41.554-48.299 72.863-52.888 29.528-3.2085 55.501 16.071 74.261 36.823 17.59 21.427 22.45 51.252 17.097 78.135-11.089 53.86-48.833 100.06-95.562 127.78-21.669 12.425-46.34 20.786-71.52 20.573z" fill="#eb71a0"/>
<path d="m300.73 88.135-0.38772-3.28c-0.21324-1.804-0.73447-5.0149-1.1583-7.1354-0.42381-2.1205-1.266-5.5765-1.8714-7.68-0.60547-2.1035-1.7203-5.4086-2.4774-7.3446-0.75709-1.936-2.2808-5.2994-3.3859-7.4742-1.1052-2.1748-3.11-5.6308-4.4551-7.68-1.3452-2.0492-2.8742-4.2696-3.398-4.9341l33.789-41.462 4.3656 2.4652-12.945 52.413c15.637 11.772 35.582 18.694 49.871 31.068z" fill="#90824a"/>
<path d="m322.26 90.609c-0.10633 0.10633-0.18196-0.08267-0.16807-0.42 0.0154-0.37278 0.0912-0.44861 0.19334-0.19333 0.0924 0.231 0.0811 0.507-0.0252 0.61333z" fill="#90824a"/>
<path d="m135.12 232.09c-29.387-0.52159-55.786-16.919-76.779-36.31-5.4606-5.0979-10.616-10.527-15.379-16.282 23.001-0.90883 47.274-4.4407 66.4-18.202 9.8282-8.0014 13.477-21.458 24.572-28.204 14.076-10.4 33.779-9.7269 48.573-1.2312 17.29 9.2851 30.209 29.675 25.303 49.626-3.5884 15.456-16.028 26.677-28.18 35.875-12.892 9.2248-28.51 15.151-44.51 14.728z" fill="#fdf8ad"/>
</g>
<circle cx="222.64" cy="88.308" r="19.55" fill="#872c1b"/>
</svg>
