<?xml version="1.0" encoding="UTF-8" standalone="no"?>
<!-- Created with Inkscape (http://www.inkscape.org/) -->

<svg
   version="1.1"
   id="svg9"
   width="360"
   height="374.72"
   viewBox="0 0 360 374.72"
   xmlns="http://www.w3.org/2000/svg"
   xmlns:svg="http://www.w3.org/2000/svg">
  <defs
     id="defs13" />
  <g
     id="g15">
    <path
       style="fill:#eb71a0;stroke-width:0.32"
       d="M 131.83003,266.64292 C 92.681628,267.34303 57.558289,243.92936 32.180932,215.91696 0.9469302,172.646 -3.4538029,135.5746 7.1597682,90.820278 22.871085,117.01282 56.167973,125.73717 75.510026,116.62672 100.93589,103.08257 116.1232,77.243847 134.69154,56.219665 154.03556,33.318643 176.24533,7.9202793 207.55429,3.3321219 c 29.52794,-3.20851091 55.50135,16.0712691 74.26066,36.8232341 17.59006,21.427393 22.44991,51.252421 17.09693,78.134504 -11.08947,53.85963 -48.83272,100.05668 -95.56188,127.78027 -21.66937,12.4246 -46.34016,20.78646 -71.51997,20.57279 z"
       id="path267" />
    <path
       style="fill:#90824a;stroke-width:0.32"
       d="m 300.72906,88.135169 -0.38772,-3.28 c -0.21324,-1.804 -0.73447,-5.014925 -1.15828,-7.135386 -0.42381,-2.120464 -1.26595,-5.576464 -1.87143,-7.68 -0.60547,-2.103489 -1.72029,-5.408564 -2.47739,-7.344564 -0.75709,-1.936 -2.28075,-5.299392 -3.38591,-7.474202 -1.10516,-2.174812 -3.10997,-5.630812 -4.45514,-7.68 -1.34517,-2.04919 -2.87425,-4.269552 -3.39796,-4.934137 l 33.7892,-41.4620975 4.3656,2.4651866 -12.94499,52.4130479 c 15.63746,11.772269 35.58193,18.694196 49.87072,31.067597 z"
       id="path675" />
    <path
       style="fill:#90824a;stroke-width:0.32"
       d="m 322.26336,90.608553 c -0.10633,0.106333 -0.18196,-0.08267 -0.16807,-0.42 0.0154,-0.372784 0.0912,-0.448608 0.19334,-0.193334 0.0924,0.230998 0.0811,0.507002 -0.0252,0.613334 z"
       id="path673" />
    <path
       style="fill:#90824a;stroke-width:0.32"
       d="M 177.43003,373.57522 V 258.3615 c 7.6787,-2.89651 15.21247,-6.75334 21.96533,-9.90628 0.17398,44.06452 0.11467,77.64758 0.11467,125.12 z"
       id="path671" />
    <path
       style="fill:#90824a;stroke-width:0.32"
       d="m 126.23003,373.57522 v -106.88 c 6.81676,0.0628 13.62829,-0.0184 20.4,-0.82978 l 1.68,-0.2037 v 107.91348 z"
       id="path265" />
    <path
       style="fill:#fdf8ad;stroke-width:0.32"
       d="m 135.12264,232.08727 c -27.19826,-0.38231 -52.0206,-14.76837 -72.120672,-32.10449 -7.202635,-6.29064 -13.938661,-13.11933 -20.03735,-20.48756 21.395015,-0.7977 43.61616,-4.02251 62.211752,-15.30692 8.01806,-4.54838 12.77005,-12.53069 17.61929,-20.02028 8.7829,-12.55395 24.20241,-20.40464 39.62116,-18.62312 22.41993,2.10844 43.42305,20.19378 46.24592,42.97554 1.36231,12.7574 -4.00865,25.36483 -12.87412,34.3916 -15.4207,17.08199 -37.09642,29.72795 -60.66598,29.17523 z"
       id="path269" />
    <circle
       style="fill:#872c1b;fill-opacity:1;stroke:none;stroke-width:3.81459"
       id="path718"
       cx="222.63734"
       cy="88.307564"
       r="19.549606" />
  </g>
</svg>
